# AST/ASF file generated using VICON BodyLanguage
# -----------------------------------------------
:version 1.10
:name VICON
:units
  mass 1.0
  length 0.45
  angle deg
:documentation
   .ast/.asf automatically generated from VICON data using
   VICON BodyBuilder and BodyLanguage model FoxedUp or BRILLIANT.MOD
:root
   order TX TY TZ RX RY RZ
   axis XYZ
   position 0 0 0  
   orientation 0 0 0 
:bonedata
  begin
     id 1 
     name lhipjoint
     direction 0.523584 -0.783993 0.333487 
     length 2.44404 
     axis 0 0 0  XYZ
  end
  begin
     id 2 
     name lfemur
     direction 0.34202 -0.939693 0  
     length 7.29523  
     axis 0 0 20  XYZ
    dof rx ry rz
    limits (-160.0 20.0)
           (-70.0 70.0)
           (-60.0 70.0)
  end
  begin
     id 3 
     name ltibia
     direction 0.34215 -0.939645 0   
     length 7.81194   
     axis 0 0 20   XYZ
    dof rx
    limits (-10.0 170.0)
  end
  begin
     id 4 
     name lfoot
     direction 0.0941847 -0.25877 0.961336   
     length 2.41437   
     axis -90 7.62852e-016 20   XYZ
    dof rx rz
    limits (-45.0 90.0)
           (-70.0 20.0)
  end
  begin
     id 5 
     name ltoes
     direction 1.53526e-011 -4.21768e-011 1   
     length 1.2048   
     axis -90 7.62852e-016 20   XYZ
    dof rx
    limits (-90.0 20.0)
  end
  begin
     id 6 
     name rhipjoint
     direction -0.46599 -0.814191 0.346332   
     length 2.35339  
     axis 0 0 0  XYZ 
  end
  begin
     id 7 
     name rfemur
     direction -0.34202 -0.939693 0   
     length 7.34966   
     axis 0 0 -20   XYZ
    dof rx ry rz
    limits (-160.0 20.0)
           (-70.0 70.0)
           (-70.0 60.0)
  end
  begin
     id 8 
     name rtibia
     direction -0.34202 -0.939693 0   
     length 7.89934   
     axis 0 0 -20   XYZ
    dof rx
    limits (-10.0 170.0)
 end
 begin
     id 9 
     name rfoot
     direction -0.0975468 -0.268008 0.958466   
     length 2.27725  
     axis -90 -7.62852e-016 -20   XYZ
    dof rx rz
    limits (-45.0 90.0)
           (-20.0 70.0)
  end
  begin
     id 10 
     name rtoes
     direction -1.53563e-011 -4.22022e-011 1   
     length 1.13683   
     axis -90 -7.62852e-016 -20   XYZ
    dof rx
    limits (-90.0 20.0)
  end
  begin
     id 11 
     name lowerback
     direction -0.00456414 0.999242 -0.0386661   
     length 2.16968   
     axis 0 0 0   XYZ
    dof rx ry rz
    limits (-20.0 45.0)
           (-30.0 30.0)
           (-30.0 30.0)
  end
  begin
     id 12 
     name upperback
     direction 0.0297078 0.998988 0.0337799   
     length 2.15674   
     axis 0 0 0   XYZ
    dof rx ry rz
    limits (-20.0 45.0)
           (-30.0 30.0)
           (-30.0 30.0)
  end
  begin
     id 13 
     name thorax
     direction 0.0309305 0.998202 0.0513506   
     length 2.16319   
     axis 0 0 0   XYZ
    dof rx ry rz
    limits (-20.0 45.0)
           (-30.0 30.0)
           (-30.0 30.0)
  end
  begin
     id 14 
     name lowerneck
     direction -0.103039 0.983474 0.148872   
     length 1.64318   
     axis 0 0 0   XYZ
    dof rx ry rz
    limits (-20.0 45.0)
           (-30.0 30.0)
           (-30.0 30.0)
  end
  begin
     id 15 
     name upperneck
     direction 0.128124 0.971079 -0.201469   
     length 1.68242   
     axis 0 0 0   XYZ
    dof rx ry rz
    limits (-20.0 45.0)
           (-30.0 30.0)
           (-30.0 30.0)
  end
  begin
     id 16
     name head
     direction 0.0496365 0.994919 -0.0875941  
     length 1.70108  
     axis 0 0 0   XYZ
    dof rx ry rz
    limits (-20.0 45.0)
           (-30.0 30.0)
           (-30.0 30.0)
  end
  begin
     id 17 
     name lclavicle
     direction 0.887148 0.430222 -0.166967  
     length 3.25763  
     axis 0 0 0   XYZ
    dof ry rz
    limits (-20.0 10.0)
           (0.0 20.0)
  end
  begin
     id 18 
     name lhumerus
     direction 1 -4.48962e-011 1.92156e-027   
     length 5.10755   
     axis 180 -30 -90   XYZ
    dof rx ry rz
    limits (-60.0 90.0)
           (-90.0 90.0)
           (-90.0 90.0)
  end
  begin
     id 19
     name lradius
     direction 1 -4.48958e-011 7.10963e-027   
     length 3.36253   
     axis 180 -30 -90   XYZ
    dof rx
    limits (-10.0 170.0)
  end
  begin
     id 20
     name lwrist
     direction 1 -4.48946e-011 1.82396e-026   
     length 1.68127   
     axis -1.15222e-014 90 90   XYZ
    dof ry
    limits (-180.0 0.0)
 end
  begin
     id 21 
     name lhand
     direction 1 -4.48919e-011 3.64759e-026   
     length 0.619088   
     axis -2.32787e-014 90 90   XYZ
    dof rx rz
    limits (-90.0 90.0)
           (-45.0 45.0)
  end
  begin
     id 22 
     name lfingers
     direction 1 -4.49012e-011 7.29744e-026   
     length 0.499125   
     axis -4.6558e-014 90 90   XYZ
    dof rx
    limits (0.0 90.0)
  end
  begin
     id 23
     name lthumb
     direction 0.707107 -6.35028e-011 0.707107   
     length 0.716646   
     axis -90 45 3.78391e-014   XYZ
    dof rx rz
    limits (-45.0 45.0)
           (-45.0 45.0)
  end
  begin
     id 24 
     name rclavicle
     direction -0.82886 0.533198 -0.169384   
     length 3.20647  
     axis 0 0 0   XYZ 
    dof ry rz
    limits (-10.0 20.0)
           (-20.0 0.0)
  end
  begin
     id 25 
     name rhumerus
     direction -1 -4.48973e-011 3.06863e-027  
     length 5.27387   
     axis 180 30 90   XYZ
    dof rx ry rz
    limits (-90.0 60.0)
           (-90.0 90.0)
           (-90.0 90.0)
  end
  begin
     id 26 
     name rradius
     direction -1 -4.48988e-011 9.4797e-027   
     length 3.40144   
     axis 180 30 90   XYZ
    dof rx
    limits (-10.0 170.0)
  end
  begin
     id 27 
     name rwrist
     direction -1 -4.48897e-011 1.82366e-026   
     length 1.70072   
     axis -1.15222e-014 -90 -90   XYZ
    dof ry
    limits (-180.0 0.0)
  end
  begin
     id 28
     name rhand
     direction -1 -4.48965e-011 3.64815e-026   
     length 0.742821   
     axis -2.32787e-014 -90 -90   XYZ
    dof rx rz
    limits (-90.0 90.0)
           (-45.0 45.0)
  end
  begin
     id 29
     name rfingers
     direction -1 -4.49016e-011 7.29754e-026   
     length 0.598881   
     axis -4.6558e-014 -90 -90   XYZ
    dof rx
    limits (0.0 90.0)
  end
  begin
     id 30
     name rthumb
     direction -0.707107 -6.3488e-011 0.707107   
     length 0.859877   
     axis -90 -45 -3.78391e-014   XYZ
    dof rx rz
    limits (-45.0 45.0)
           (-45.0 45.0)
  end
:hierarchy
  begin
    root lhipjoint rhipjoint lowerback
    lhipjoint lfemur
    lfemur ltibia
    ltibia lfoot
    lfoot ltoes
    rhipjoint rfemur
    rfemur rtibia
    rtibia rfoot
    rfoot rtoes
    lowerback upperback
    upperback thorax
    thorax lowerneck lclavicle rclavicle
    lowerneck upperneck
    upperneck head
    lclavicle lhumerus
    lhumerus lradius
    lradius lwrist
    lwrist lhand lthumb
    lhand lfingers
    rclavicle rhumerus
    rhumerus rradius
    rradius rwrist
    rwrist rhand rthumb
    rhand rfingers
  end

#!OML:ASF F:\Work\Patient Classification 1\justin\Session 1\justin.ASF
:FULLY-SPECIFIED
:DEGREES
2173
root 2.92263 15.3542 14.7616 316.675 -95.2767 -343.777
lowerback 31.875 6.34694 2.27659
upperback 15.0897 7.11174 5.88974
thorax -0.620785 2.62544 3.03472
lowerneck -19.2787 9.39213 -5.68677
upperneck 14.5854 14.3061 -0.063264
head 7.21708 6.49682 2.47542
rclavicle -4.77083e-015 -2.8625e-014
rhumerus -22.9879 -0.0790554 -72.3414
rradius 58.7617
rwrist 3.71016
rhand -34.9374 15.596
rfingers 7.12502
rthumb -8.08435 -14.2294
lclavicle -4.77083e-015 -2.8625e-014
lhumerus -24.0631 -30.085 97.5968
lradius 79.1947
lwrist -2.1977
lhand -37.1759 18.528
lfingers 7.12502
lthumb -10.2444 48.2585
rfemur -26.6925 -19.7088 4.22116
rtibia 76.9526
rfoot 8.83624 -7.24718
rtoes -5.65033
lfemur -47.4503 17.9786 -11.6437
ltibia 84.2756
lfoot 23.4121 -10.5832
ltoes -19.7267
2174
root 2.92077 15.3512 14.7586 316.708 -95.2788 -343.856
lowerback 31.9214 6.35227 2.22657
upperback 15.0751 7.10847 5.9172
thorax -0.667501 2.61922 3.09039
lowerneck -19.3625 9.52926 -5.06445
upperneck 14.833 14.4476 -0.605681
head 7.39886 6.52588 2.25167
rclavicle -9.02482e-014 2.70347e-014
rhumerus -23.0199 -0.0994222 -72.3157
rradius 58.7603
rwrist 3.6922
rhand -34.9391 15.6152
rfingers 7.12502
rthumb -8.08596 -14.2102
lclavicle -9.02482e-014 2.70347e-014
lhumerus -24.1278 -29.9779 97.6622
lradius 79.1712
lwrist -2.22861
lhand -37.0761 18.3726
lfingers 7.12502
lthumb -10.1481 48.1078
rfemur -26.6333 -19.7109 4.20189
rtibia 76.9572
rfoot 8.37437 -7.72447
rtoes -2.18751
lfemur -47.3979 18.132 -11.6862
ltibia 84.439
lfoot 23.0702 -11.4675
ltoes -21.6275
2175
root 2.92058 15.3489 14.7592 316.239 -95.2901 -343.422
lowerback 31.9754 6.32065 2.31506
upperback 15.0579 7.09441 5.8972
thorax -0.695728 2.61712 3.01938
lowerneck -19.2446 9.53302 -4.94325
upperneck 14.7582 14.4241 -0.68849
head 7.37065 6.51799 2.19699
rclavicle 7.71285e-014 -3.65764e-014
rhumerus -23.0652 -0.0409187 -72.324
rradius 58.7694
rwrist 3.5381
rhand -34.928 15.7854
rfingers 7.12502
rthumb -8.07529 -14.0404
lclavicle 7.71285e-014 -3.65764e-014
lhumerus -24.1581 -30.0448 97.6071
lradius 79.1891
lwrist -2.16301
lhand -36.9195 18.2901
lfingers 7.12502
lthumb -9.99702 48.0326
rfemur -26.5858 -19.7397 4.22139
rtibia 76.9469
rfoot 8.41138 -7.67667
rtoes -1.86955
lfemur -47.391 18.1754 -11.6463
ltibia 84.5998
lfoot 22.9516 -11.6868
ltoes -22.6034
2176
root 2.9214 15.3469 14.7616 316.262 -95.2442 -343.422
lowerback 31.9777 6.30052 2.38346
upperback 15.0508 7.08818 5.84692
thorax -0.689301 2.62106 2.92717
lowerneck -19.2208 9.52515 -4.7243
upperneck 14.6919 14.3758 -0.825717
head 7.37295 6.49573 2.11498
rclavicle 1.55052e-014 9.54166e-015
rhumerus -23.0642 0.0101102 -72.3378
rradius 58.7459
rwrist 3.48589
rhand -34.917 15.8337
rfingers 7.12502
rthumb -8.0647 -13.9924
lclavicle 1.55052e-014 9.54166e-015
lhumerus -24.1549 -30.134 97.5678
lradius 79.1726
lwrist -2.11653
lhand -36.8714 18.3218
lfingers 7.12502
lthumb -9.95055 48.0666
rfemur -26.5778 -19.7763 4.15663
rtibia 76.9101
rfoot 8.40532 -7.64886
rtoes -3.80709
lfemur -47.4482 18.1499 -11.6396
ltibia 84.7376
lfoot 23.2384 -11.0525
ltoes -21.4998
2177
root 2.92159 15.347 14.7617 316.443 -95.252 -343.584
lowerback 31.9763 6.31683 2.44621
upperback 15.0364 7.12834 5.78956
thorax -0.691417 2.64888 2.81537
lowerneck -19.2647 9.47405 -4.52795
upperneck 14.7539 14.2667 -0.858175
head 7.41981 6.44715 2.07117
rclavicle -1.07344e-014 -3.81667e-014
rhumerus -23.1312 -0.0230339 -72.4619
rradius 58.7482
rwrist 3.66681
rhand -35.1819 15.3987
rfingers 7.12502
rthumb -8.32036 -14.4175
lclavicle -1.07344e-014 -3.81667e-014
lhumerus -24.1884 -30.2144 97.539
lradius 79.1534
lwrist -2.05877
lhand -36.9586 18.3112
lfingers 7.12502
lthumb -10.0347 48.052
rfemur -26.5571 -19.7969 4.14632
rtibia 76.8636
rfoot 8.76414 -7.14967
rtoes -3.96504
lfemur -47.4881 18.1853 -11.6115
ltibia 84.8399
lfoot 23.4437 -10.764
ltoes -20.6907
2178
root 2.92278 15.3491 14.761 315.782 -95.282 -342.94
lowerback 32.0073 6.27342 2.53378
upperback 15.0215 7.09899 5.79654
thorax -0.710257 2.63771 2.78106
lowerneck -19.2649 9.43421 -4.62547
upperneck 14.8182 14.2293 -0.78888
head 7.42942 6.42814 2.10498
rclavicle -2.8625e-014 2.22639e-014
rhumerus -23.1169 -0.255318 -72.5119
rradius 58.7167
rwrist 3.90391
rhand -35.0568 15.4412
rfingers 7.12502
rthumb -8.19955 -14.3797
lclavicle -2.8625e-014 2.22639e-014
lhumerus -24.2387 -30.2378 97.491
lradius 79.2018
lwrist -1.95374
lhand -37.0612 18.3488
lfingers 7.12502
lthumb -10.1337 48.0848
rfemur -26.5018 -19.8241 4.22656
rtibia 76.8224
rfoot 9.34141 -6.34007
rtoes -11.0049
lfemur -47.4934 18.1705 -11.5146
ltibia 84.8891
lfoot 23.5161 -10.7935
ltoes -20.632
2179
root 2.92524 15.3552 14.7594 315.338 -95.2787 -342.51
lowerback 31.9984 6.22721 2.47862
upperback 15.0365 7.02194 5.86093
thorax -0.701277 2.59117 2.90879
lowerneck -19.2938 9.43414 -4.79811
upperneck 14.829 14.2796 -0.799563
head 7.42572 6.44016 2.13315
rclavicle 8.5875e-014 -6.36111e-015
rhumerus -22.9695 -0.420768 -72.3981
rradius 58.6382
rwrist 3.93636
rhand -34.449 16.0549
rfingers 7.12502
rthumb -7.61296 -13.7881
lclavicle 8.5875e-014 -6.36111e-015
lhumerus -24.2547 -30.0521 97.5562
lradius 79.2191
lwrist -2.05395
lhand -37.1507 18.6323
lfingers 7.12502
lthumb -10.2201 48.364
rfemur -26.4259 -19.6816 4.30081
rtibia 76.7672
rfoot 8.70739 -7.0975
rtoes -5.14119
lfemur -47.4409 18.1111 -11.4358
ltibia 84.867
lfoot 23.6453 -10.5881
ltoes -20.0535
2180
root 2.92562 15.3608 14.7567 316.053 -95.2774 -343.206
lowerback 31.9344 6.2604 2.34226
upperback 15.0516 7.02396 5.85348
thorax -0.673171 2.5863 2.98034
lowerneck -19.4697 9.42645 -4.7421
upperneck 14.9573 14.2763 -0.818495
head 7.50335 6.43018 2.13426
rclavicle -4.53229e-014 6.36111e-015
rhumerus -22.9187 -0.371182 -72.3941
rradius 58.5979
rwrist 3.95788
rhand -34.141 16.2254
rfingers 7.12502
rthumb -7.31563 -13.6281
lclavicle -4.53229e-014 6.36111e-015
lhumerus -24.2093 -29.829 97.6243
lradius 79.1308
lwrist -2.26127
lhand -36.9535 18.7156
lfingers 7.12502
lthumb -10.0298 48.4566
rfemur -26.4122 -19.4732 4.30834
rtibia 76.7253
rfoot 6.67238 -9.05145
rtoes 4.72361
lfemur -47.3765 18.1517 -11.4589
ltibia 84.8012
lfoot 23.6684 -10.4214
ltoes -19.4788
2181
root 2.92488 15.3607 14.7572 316.764 -95.2908 -343.88
lowerback 31.898 6.29291 2.3183
upperback 15.0371 7.06201 5.81973
thorax -0.675007 2.60819 2.94552
lowerneck -19.5668 9.35638 -4.76718
upperneck 15.075 14.1797 -0.707627
head 7.54993 6.3874 2.17221
rclavicle 5.20816e-014 6.83819e-014
rhumerus -22.9933 -0.101186 -72.4537
rradius 58.6526
rwrist 3.83002
rhand -34.5049 15.6159
rfingers 7.12502
rthumb -7.66695 -14.2251
lclavicle 5.20816e-014 6.83819e-014
lhumerus -24.1853 -29.8138 97.6364
lradius 79.08
lwrist -2.27441
lhand -36.7545 18.6179
lfingers 7.12502
lthumb -9.83776 48.3681
rfemur -26.4645 -19.3919 4.29868
rtibia 76.7239
rfoot 8.52346 -7.37941
rtoes -2.71281
lfemur -47.3871 18.2454 -11.5342
ltibia 84.7505
lfoot 23.4856 -10.5036
ltoes -20.1589
2182
root 2.92702 15.3627 14.7599 316.327 -95.3043 -343.425
lowerback 31.8966 6.26359 2.362
upperback 15.0237 7.03998 5.85861
thorax -0.688422 2.59785 2.97048
lowerneck -19.6052 9.24916 -4.91512
upperneck 15.1915 14.0645 -0.608779
head 7.57968 6.32835 2.21843
rclavicle 1.19271e-015 1.27222e-014
rhumerus -23.0217 0.191347 -72.4145
rradius 58.7147
rwrist 3.45926
rhand -34.9151 15.2429
rfingers 7.12502
rthumb -8.06284 -14.5833
lclavicle 1.19271e-015 1.27222e-014
lhumerus -24.2098 -29.8129 97.6753
lradius 79.1096
lwrist -2.25816
lhand -36.7034 18.6122
lfingers 7.12502
lthumb -9.78845 48.3647
rfemur -26.4653 -19.2189 4.38373
rtibia 76.6948
rfoot 9.04576 -6.92983
rtoes -5.1832
lfemur -47.4153 18.2286 -11.5275
ltibia 84.6776
lfoot 23.3898 -10.3554
ltoes -20.5534
2183
root 2.92584 15.3595 14.7589 315.65 -95.2916 -342.754
lowerback 31.9087 6.23332 2.43758
upperback 15.0143 7.02437 5.86725
thorax -0.6952 2.59374 2.94169
lowerneck -19.7641 9.11543 -4.7009
upperneck 15.3509 13.8612 -0.699473
head 7.68705 6.2229 2.15342
rclavicle -1.31198e-014 -1.43125e-014
rhumerus -23.0467 0.140194 -72.3859
rradius 58.7364
rwrist 3.25488
rhand -34.9351 15.421
rfingers 7.12502
rthumb -8.08218 -14.4044
lclavicle -1.31198e-014 -1.43125e-014
lhumerus -24.2314 -29.8581 97.6699
lradius 79.1245
lwrist -2.30374
lhand -36.6365 18.5344
lfingers 7.12502
lthumb -9.72396 48.29
rfemur -26.4093 -19.4489 4.32088
rtibia 76.6833
rfoot 8.40529 -7.54096
rtoes -0.0675892
lfemur -47.4509 18.1312 -11.4618
ltibia 84.6178
lfoot 23.3981 -9.98965
ltoes -19.6813
2184
root 2.92514 15.3596 14.7557 315.907 -95.2439 -343.023
lowerback 31.9477 6.26548 2.50469
upperback 14.9907 7.08915 5.7969
thorax -0.724256 2.63511 2.8024
lowerneck -20.0336 9.36619 -1.67227
upperneck 15.6097 14.0278 -3.86744
head 8.29446 6.10068 0.770029
rclavicle -2.46493e-014 -2.22639e-014
rhumerus -23.1594 -0.142041 -72.4347
rradius 58.7485
rwrist 3.34686
rhand -34.9183 15.3675
rfingers 7.12502
rthumb -8.06595 -14.4586
lclavicle -2.46493e-014 -2.22639e-014
lhumerus -24.2533 -30.0794 97.6338
lradius 79.1014
lwrist -2.36764
lhand -36.7679 18.6762
lfingers 7.12502
lthumb -9.85077 48.4257
rfemur -26.3329 -19.3907 4.24379
rtibia 76.651
rfoot 7.57608 -8.25048
rtoes 4.36347
lfemur -47.412 18.1022 -11.5087
ltibia 84.4848
lfoot 23.0934 -10.1629
ltoes -20.128
2185
root 2.92509 15.355 14.7529 316.116 -95.2403 -343.219
lowerback 31.9787 6.33019 2.53101
upperback 14.9539 7.18907 5.78612
thorax -0.779398 2.6897 2.7401
lowerneck -19.5909 8.67623 -4.3953
upperneck 15.2525 13.2246 -1.00776
head 7.6855 5.90962 1.93052
rclavicle -2.70347e-014 -7.4743e-014
rhumerus -23.3036 -0.287797 -72.4405
rradius 58.7101
rwrist 3.77381
rhand -35.2802 15.073
rfingers 7.12502
rthumb -8.41521 -14.7393
lclavicle -2.70347e-014 -7.4743e-014
lhumerus -24.3053 -30.2523 97.7168
lradius 79.0776
lwrist -2.47906
lhand -36.8456 18.8153
lfingers 7.12502
lthumb -9.92569 48.5613
rfemur -26.3532 -19.3254 4.24408
rtibia 76.6545
rfoot 7.5331 -8.21456
rtoes 3.85776
lfemur -47.4231 18.1972 -11.5665
ltibia 84.3389
lfoot 22.5729 -11.007
ltoes -22.4772
